<?xml version="1.0" encoding="UTF-8" standalone="no"?>
<svg width="523px" height="523px" viewBox="0 0 523 523" version="1.1" xmlns="http://www.w3.org/2000/svg" xmlns:xlink="http://www.w3.org/1999/xlink" xmlns:sketch="http://www.bohemiancoding.com/sketch/ns">
    <!-- Generator: Sketch 3.4.3 (16618) - http://www.bohemiancoding.com/sketch -->
    <title>Untitled</title>
    <desc>Created with Sketch.</desc>
    <defs>
        <linearGradient x1="110.700576%" y1="-34.8698417%" x2="0%" y2="115.912158%" id="linearGradient-1">
            <stop stop-color="#074A39" offset="0%"></stop>
            <stop stop-color="#10785C" offset="24.0648013%"></stop>
            <stop stop-color="#1CB48A" offset="100%"></stop>
        </linearGradient>
    </defs>
    <g id="Page-1" stroke="none" stroke-width="1" fill="none" fill-rule="evenodd" sketch:type="MSPage">
        <circle id="Oval-Color" stroke="#979797" fill="url(#linearGradient-1)" sketch:type="MSShapeGroup" cx="261.5" cy="261.5" r="260.5"></circle>
        <g id="maps" sketch:type="MSLayerGroup" transform="translate(142.000000, 142.000000)" fill="#FFFFFF">
            <g id="Group" transform="translate(0.984375, 0.984375)" sketch:type="MSShapeGroup">
                <g id="maps-icon" transform="translate(42.000000, 0.000000)">
                    <g id="Group">
                        <path d="M76.0257,245 C76.0257,245 0,137.337813 0,91.4003125 C0,0.95703125 76.0257,0 76.0257,0 C76.0257,0 153,0.95703125 153,90.9179688 C153,138.287187 76.0257,245 76.0257,245 L76.0257,245 Z M76.5,45.9375 C59.60115,45.9375 45.9,59.6498438 45.9,76.5625 C45.9,93.4751563 59.60115,107.1875 76.5,107.1875 C93.39885,107.1875 107.1,93.4751563 107.1,76.5625 C107.1,59.6498438 93.39885,45.9375 76.5,45.9375 L76.5,45.9375 Z" id="Shape"></path>
                    </g>
                </g>
            </g>
        </g>
    </g>
</svg>